{
  "accessors": [
    {
      "bufferView": 1,
      "componentType": 5126,
      "count": 65532,
      "max": [
        32.330326080322266,
        41.717777252197266,
        96.51792907714844
      ],
      "min": [
        -45.23594665527344,
        -27.853313446044922,
        -2.6995958251063712e-05
      ],
      "type": "VEC3"
    },
    {
      "bufferView": 1,
      "byteOffset": 786384,
      "componentType": 5126,
      "count": 65532,
      "max": [
        0.9999092817306519,
        0.9999973177909851,
        0.9991647601127625
      ],
      "min": [
        -0.9997931122779846,
        -0.9998356103897095,
        -1.0
      ],
      "type": "VEC3"
    },
    {
      "bufferView": 0,
      "componentType": 5125,
      "count": 355089,
      "type": "SCALAR"
    },
    {
      "bufferView": 1,
      "byteOffset": 1572768,
      "componentType": 5126,
      "count": 65532,
      "max": [
        31.369354248046875,
        47.620845794677734,
        97.34512329101563
      ],
      "min": [
        -67.49432373046875,
        -27.853313446044922,
        -2.6995958251063712e-05
      ],
      "type": "VEC3"
    },
    {
      "bufferView": 1,
      "byteOffset": 2359152,
      "componentType": 5126,
      "count": 65532,
      "max": [
        0.9999682307243347,
        0.9999920129776001,
        0.9999399185180664
      ],
      "min": [
        -0.9999779462814331,
        -0.9998636841773987,
        -1.0
      ],
      "type": "VEC3"
    },
    {
      "bufferView": 0,
      "byteOffset": 1420356,
      "componentType": 5125,
      "count": 341262,
      "type": "SCALAR"
    },
    {
      "bufferView": 1,
      "byteOffset": 3145536,
      "componentType": 5126,
      "count": 65532,
      "max": [
        28.100082397460938,
        21.791357040405273,
        99.99996948242188
      ],
      "min": [
        -27.701866149902344,
        -24.11937713623047,
        -1.7386720685408363e-07
      ],
      "type": "VEC3"
    },
    {
      "bufferView": 1,
      "byteOffset": 3931920,
      "componentType": 5126,
      "count": 65532,
      "max": [
        0.9999945759773254,
        0.9999681115150452,
        0.9999793171882629
      ],
      "min": [
        -0.9999973177909851,
        -0.9997771978378296,
        -0.999526858329773
      ],
      "type": "VEC3"
    },
    {
      "bufferView": 0,
      "byteOffset": 2785404,
      "componentType": 5125,
      "count": 363753,
      "type": "SCALAR"
    },
    {
      "bufferView": 1,
      "byteOffset": 4718304,
      "componentType": 5126,
      "count": 65532,
      "max": [
        31.00673484802246,
        24.445850372314453,
        99.99996948242188
      ],
      "min": [
        -20.678237915039063,
        -23.81357765197754,
        0.4106430411338806
      ],
      "type": "VEC3"
    },
    {
      "bufferView": 1,
      "byteOffset": 5504688,
      "componentType": 5126,
      "count": 65532,
      "max": [
        0.9999947547912598,
        0.9998144507408142,
        0.9999793171882629
      ],
      "min": [
        -0.9999902248382568,
        -0.999883234500885,
        -0.9999337196350098
      ],
      "type": "VEC3"
    },
    {
      "bufferView": 0,
      "byteOffset": 4240416,
      "componentType": 5125,
      "count": 356763,
      "type": "SCALAR"
    },
    {
      "bufferView": 1,
      "byteOffset": 6291072,
      "componentType": 5126,
      "count": 65532,
      "max": [
        31.845163345336914,
        29.4954776763916,
        96.39256286621094
      ],
      "min": [
        -20.56961441040039,
        -26.34964370727539,
        -9.114563908951823e-06
      ],
      "type": "VEC3"
    },
    {
      "bufferView": 1,
      "byteOffset": 7077456,
      "componentType": 5126,
      "count": 65532,
      "max": [
        0.999922513961792,
        0.9999087452888489,
        0.9447253346443176
      ],
      "min": [
        -0.9966006875038147,
        -0.9999849200248718,
        -0.999977171421051
      ],
      "type": "VEC3"
    },
    {
      "bufferView": 0,
      "byteOffset": 5667468,
      "componentType": 5125,
      "count": 347901,
      "type": "SCALAR"
    },
    {
      "bufferView": 1,
      "byteOffset": 7863840,
      "componentType": 5126,
      "count": 65532,
      "max": [
        30.680131912231445,
        47.602291107177734,
        97.2322769165039
      ],
      "min": [
        -67.49432373046875,
        -32.50840759277344,
        0.00038725632475689054
      ],
      "type": "VEC3"
    },
    {
      "bufferView": 1,
      "byteOffset": 8650224,
      "componentType": 5126,
      "count": 65532,
      "max": [
        0.999355137348175,
        0.9999586343765259,
        0.9999828934669495
      ],
      "min": [
        -0.9999711513519287,
        -0.9999980330467224,
        -0.9999804496765137
      ],
      "type": "VEC3"
    },
    {
      "bufferView": 0,
      "byteOffset": 7059072,
      "componentType": 5125,
      "count": 324282,
      "type": "SCALAR"
    },
    {
      "bufferView": 1,
      "byteOffset": 9436608,
      "componentType": 5126,
      "count": 27629,
      "max": [
        21.103256225585938,
        41.913787841796875,
        98.8173599243164
      ],
      "min": [
        -52.64244842529297,
        -18.564781188964844,
        -9.114563908951823e-06
      ],
      "type": "VEC3"
    },
    {
      "bufferView": 1,
      "byteOffset": 9768156,
      "componentType": 5126,
      "count": 27629,
      "max": [
        0.9968429803848267,
        0.9999276399612427,
        0.9913947582244873
      ],
      "min": [
        -0.9996727705001831,
        -0.9634207487106323,
        -0.9581093192100525
      ],
      "type": "VEC3"
    },
    {
      "bufferView": 0,
      "byteOffset": 8356200,
      "componentType": 5125,
      "count": 117582,
      "type": "SCALAR"
    }
  ],
  "asset": {
    "extras": {
      "author": "Patrickart.hk (https://sketchfab.com/Patrickart.hk)",
      "license": "CC-BY-NC-ND-4.0 (http://creativecommons.org/licenses/by-nc-nd/4.0/)",
      "source": "https://sketchfab.com/3d-models/charmanderpokemon-8a096cdfc20b4d3099ddedafc7ff107a",
      "title": "Charmander(Pokemon)"
    },
    "generator": "Sketchfab-12.68.0",
    "version": "2.0"
  },
  "bufferViews": [
    {
      "buffer": 0,
      "byteLength": 8826528,
      "name": "floatBufferViews",
      "target": 34963
    },
    {
      "buffer": 0,
      "byteLength": 10099704,
      "byteOffset": 8826528,
      "byteStride": 12,
      "name": "floatBufferViews",
      "target": 34962
    }
  ],
  "buffers": [
    {
      "byteLength": 18926232,
      "uri": "scene.bin"
    }
  ],
  "materials": [
    {
      "doubleSided": true,
      "name": "Scene_-_Root",
      "pbrMetallicRoughness": {
        "metallicFactor": 0.0,
        "roughnessFactor": 0.6
      }
    }
  ],
  "meshes": [
    {
      "name": "Object_0",
      "primitives": [
        {
          "attributes": {
            "NORMAL": 1,
            "POSITION": 0
          },
          "indices": 2,
          "material": 0,
          "mode": 4
        }
      ]
    },
    {
      "name": "Object_1",
      "primitives": [
        {
          "attributes": {
            "NORMAL": 4,
            "POSITION": 3
          },
          "indices": 5,
          "material": 0,
          "mode": 4
        }
      ]
    },
    {
      "name": "Object_2",
      "primitives": [
        {
          "attributes": {
            "NORMAL": 7,
            "POSITION": 6
          },
          "indices": 8,
          "material": 0,
          "mode": 4
        }
      ]
    },
    {
      "name": "Object_3",
      "primitives": [
        {
          "attributes": {
            "NORMAL": 10,
            "POSITION": 9
          },
          "indices": 11,
          "material": 0,
          "mode": 4
        }
      ]
    },
    {
      "name": "Object_4",
      "primitives": [
        {
          "attributes": {
            "NORMAL": 13,
            "POSITION": 12
          },
          "indices": 14,
          "material": 0,
          "mode": 4
        }
      ]
    },
    {
      "name": "Object_5",
      "primitives": [
        {
          "attributes": {
            "NORMAL": 16,
            "POSITION": 15
          },
          "indices": 17,
          "material": 0,
          "mode": 4
        }
      ]
    },
    {
      "name": "Object_6",
      "primitives": [
        {
          "attributes": {
            "NORMAL": 19,
            "POSITION": 18
          },
          "indices": 20,
          "material": 0,
          "mode": 4
        }
      ]
    }
  ],
  "nodes": [
    {
      "children": [
        1
      ],
      "matrix": [
        1.0,
        0.0,
        0.0,
        0.0,
        0.0,
        2.220446049250313e-16,
        -1.0,
        0.0,
        0.0,
        1.0,
        2.220446049250313e-16,
        0.0,
        0.0,
        0.0,
        0.0,
        1.0
      ],
      "name": "Sketchfab_model"
    },
    {
      "children": [
        2,
        3,
        4,
        5,
        6,
        7,
        8
      ],
      "name": "Charmander.stl.cleaner.materialmerger.gles"
    },
    {
      "mesh": 0,
      "name": "Object_2"
    },
    {
      "mesh": 1,
      "name": "Object_3"
    },
    {
      "mesh": 2,
      "name": "Object_4"
    },
    {
      "mesh": 3,
      "name": "Object_5"
    },
    {
      "mesh": 4,
      "name": "Object_6"
    },
    {
      "mesh": 5,
      "name": "Object_7"
    },
    {
      "mesh": 6,
      "name": "Object_8"
    }
  ],
  "scene": 0,
  "scenes": [
    {
      "name": "Sketchfab_Scene",
      "nodes": [
        0
      ]
    }
  ]
}
